
  <svg
    width="1000"
    height="1000"
    viewBox="0 0 1000 1000"
    xmlns="http://www.w3.org/2000/svg"
  >
    <defs>
      <clipPath id="shape">
        <path fill="currentColor" d="M910,627Q849,754,730.5,799Q612,844,501,842Q390,840,286.5,785Q183,730,163,615Q143,500,173.5,392.5Q204,285,279,167.5Q354,50,497,60Q640,70,732.5,167Q825,264,898,382Q971,500,910,627Z"></path>
      </clipPath>
    </defs>
    <g clip-path="url(#shape)">
      <path fill="#f4978e" d="M910,627Q849,754,730.5,799Q612,844,501,842Q390,840,286.5,785Q183,730,163,615Q143,500,173.5,392.5Q204,285,279,167.5Q354,50,497,60Q640,70,732.5,167Q825,264,898,382Q971,500,910,627Z" />
    </g>
  </svg>