<svg width="72" height="42" viewBox="0 0 72 42" fill="none" xmlns="http://www.w3.org/2000/svg">
<path d="M19.3596 21.1704C20.0809 19.9117 19.6389 18.3177 18.3724 17.6102C17.1058 16.9028 15.4943 17.3496 14.773 18.6083L6.30562 33.3838C5.58428 34.6426 6.02627 36.2365 7.29282 36.944C8.55937 37.6515 10.1709 37.2046 10.8922 35.9459L19.3596 21.1704Z" fill="#C5F74F"/>
<path d="M37.6106 9.84116C38.3319 8.58244 37.8899 6.98851 36.6234 6.28102C35.3568 5.57353 33.7453 6.02039 33.024 7.27911L24.5566 22.0546C23.8353 23.3133 24.2772 24.9073 25.5438 25.6147C26.8103 26.3222 28.4218 25.8754 29.1432 24.6167L37.6106 9.84116Z" fill="#C5F74F"/>
<path d="M65.6936 9.84165C66.4149 8.58293 65.9729 6.989 64.7064 6.28151C63.4398 5.57402 61.8283 6.02088 61.107 7.2796L52.6396 22.0551C51.9183 23.3138 52.3603 24.9077 53.6268 25.6152C54.8934 26.3227 56.5049 25.8759 57.2262 24.6171L65.6936 9.84165Z" fill="#C5F74F"/>
<path d="M47.4367 21.1704C48.158 19.9117 47.716 18.3177 46.4495 17.6102C45.1829 16.9028 43.5714 17.3496 42.8501 18.6083L34.3827 33.3838C33.6614 34.6426 34.1034 36.2365 35.3699 36.944C36.6365 37.6515 38.248 37.2046 38.9693 35.9459L47.4367 21.1704Z" fill="#C5F74F"/>
</svg>
