<svg width="708" height="350" xmlns="http://www.w3.org/2000/svg">
 <g id="Layer_1">
  <title>Layer 1</title>
  <g>
   <g>
    <title>Layer 1</title>
    <g stroke="null">
     <rect width="342.00002" height="342.00002" fill="#f7df1e" y="2.99998" x="2" stroke="null"/>
     <path d="m231.73716,270.18885c6.88886,11.248 15.85143,19.51572 31.70286,19.51572c13.31629,0 21.82286,-6.65543 21.82286,-15.85143c0,-11.02 -8.74,-14.92314 -23.39714,-21.33429l-8.03429,-3.44714c-23.19086,-9.88 -38.59714,-22.25714 -38.59714,-48.42286c0,-24.10286 18.36486,-42.45143 47.06572,-42.45143c20.43314,0 35.12286,7.11143 45.70857,25.73143l-25.02572,16.06857c-5.51,-9.88 -11.45429,-13.77229 -20.68286,-13.77229c-9.41314,0 -15.37914,5.97143 -15.37914,13.77229c0,9.64114 5.97143,13.54429 19.76,19.51572l8.03429,3.44171c27.30572,11.70943 42.72286,23.64686 42.72286,50.48572c0,28.93429 -22.72943,44.78572 -53.25429,44.78572c-29.84629,0 -49.12857,-14.22286 -58.56343,-32.86457l26.11686,-15.17286l-0.00001,-0.00001zm-113.52772,2.78486c5.04857,8.95714 9.64114,16.53 20.68286,16.53c10.55857,0 17.21943,-4.13114 17.21943,-20.19429l0,-109.27715l32.13714,0l0,109.71143c0,33.27714 -19.51029,48.42286 -47.98857,48.42286c-25.73143,0 -40.63286,-13.31629 -48.21115,-29.355l26.16029,-15.83786l0,0.00001z" stroke="null"/>
    </g>
    <g stroke="null">
     <title stroke="null">TypeScript logo</title>
     <rect width="342" height="342" rx="50" fill="#3178c6" y="2.99999" x="365.03452" stroke="null"/>
     <path d="m576.78062,274.86328l0,33.39844c5.41055,2.80547 12.02344,4.87617 19.37109,6.27891s15.36328,2.0707 23.37891,2.0707c8.01563,0 15.36328,-0.73477 22.71094,-2.27109c7.34766,-1.53633 13.35938,-4.07461 18.70313,-7.34766c5.41055,-3.54023 10.01953,-8.01563 12.69141,-14.02734s4.74258,-12.69141 4.74258,-21.375c0,-6.07852 -0.93516,-11.35547 -2.73867,-16.03125s-4.40859,-8.68359 -8.01563,-12.02344c-3.40664,-3.54023 -7.34766,-6.67969 -12.02344,-9.35156s-10.01953,-5.47734 -16.03125,-8.01563c-4.40859,-1.80352 -8.01563,-3.54023 -12.02344,-5.27695c-3.47344,-1.73672 -6.4793,-3.47344 -8.68359,-5.21016c-2.47148,-1.80352 -4.3418,-3.67383 -5.67773,-5.61094c-1.33594,-2.00391 -2.00391,-4.2082 -2.00391,-6.67969c0,-2.27109 0.59449,-4.3418 1.80352,-6.21211s2.87227,-3.40664 5.00977,-4.74258c2.1375,-1.33594 4.80938,-2.33789 8.01563,-3.07266c3.13945,-0.73477 6.61289,-1.06875 10.6875,-1.06875c2.80547,0 5.74453,0.20707 8.68359,0.62789c3.07266,0.42082 6.21211,1.06875 9.35156,1.93711c3.13945,0.86836 6.21211,1.93711 9.35156,3.27305c2.93906,1.33594 5.67773,2.87227 8.01563,4.60898l0,-31.39453c-5.07656,-1.93711 -10.6875,-3.40664 -16.69922,-4.3418s-12.69141,-1.40273 -20.70703,-1.40273c-8.01563,0 -15.36328,0.86836 -22.71094,2.53828s-13.35938,4.3418 -18.70313,8.01563c-5.41055,3.60703 -9.35156,8.01563 -12.69141,14.02734c-3.13945,5.61094 -4.67578,12.02344 -4.67578,20.03906c0,10.01953 2.87227,18.70313 8.68359,25.38281c5.74453,7.34766 14.69531,12.69141 26.05078,18.03516c4.60898,1.87031 8.68359,3.74063 12.69141,5.54414s7.34766,3.67383 10.01953,5.61094c2.87227,1.93711 5.14336,4.07461 6.67969,6.3457c1.66992,2.27109 2.53828,4.94297 2.53828,8.01563c0,2.1375 -0.52102,4.14141 -1.53633,6.01172s-2.60508,3.47344 -4.74258,4.80938s-4.74258,2.40469 -8.01563,3.20625c-3.13945,0.73477 -6.67969,1.13555 -11.35547,1.13555c-7.34766,0 -14.69531,-1.26914 -21.375,-3.80742c-7.34766,-2.53828 -14.02734,-6.3457 -20.03906,-11.35547l1.26914,-0.29391zm-56.10938,-82.16016l42.75,0l0,-27.38672l-119.56641,0l0,27.38672l42.75,0l0,122.23828l34.06641,0l0,-122.23828z" clip-rule="evenodd" fill="#fff" fill-rule="evenodd" stroke="null"/>
    </g>
   </g>
  </g>
 </g>

</svg>